<svg xmlns="http://www.w3.org/2000/svg" viewBox="0 0 512 512" width="512" height="512" role="img" aria-label="Connor with Honor Jerusalem cross">
  <path d="M64 54 H448 V252 L426 334 L364 416 L256 478 L148 416 L86 334 L64 252 Z" fill="#000000"/>
  <path d="M100 88 H412 V246 L393 318 L342 390 L256 444 L170 390 L119 318 L100 246 Z" fill="#EAAC19"/>
  <g fill="#000000">
    <rect x="232" y="150" width="48" height="242"/>
    <rect x="150" y="238" width="212" height="62"/>
    <rect x="204" y="150" width="104" height="26"/>
    <rect x="204" y="366" width="104" height="26"/>
    <rect x="150" y="212" width="26" height="114"/>
    <rect x="336" y="212" width="26" height="114"/>
    <rect x="189" y="174" width="14" height="44"/><rect x="174" y="189" width="44" height="14"/>
    <rect x="309" y="174" width="14" height="44"/><rect x="294" y="189" width="44" height="14"/>
    <rect x="189" y="322" width="14" height="44"/><rect x="174" y="337" width="44" height="14"/>
    <rect x="309" y="322" width="14" height="44"/><rect x="294" y="337" width="44" height="14"/>
  </g>
</svg>
