<svg xmlns="http://www.w3.org/2000/svg" viewBox="0 0 512 512" width="512" height="512" role="img" aria-label="Connor with Honor Jerusalem cross">
  <path d="M70 60 H442 V250 L420 330 L360 410 L256 470 L152 410 L92 330 L70 250 Z" fill="#8B6E23"/>
  <path d="M86 76 H426 V248 L406 322 L350 396 L256 450 L162 396 L106 322 L86 248 Z" fill="#C8A24B"/>
  <g fill="#111">
    <rect x="232" y="150" width="48" height="242"/>
    <rect x="150" y="238" width="212" height="62"/>
    <rect x="204" y="150" width="104" height="26"/>
    <rect x="204" y="366" width="104" height="26"/>
    <rect x="150" y="212" width="26" height="114"/>
    <rect x="336" y="212" width="26" height="114"/>
    <rect x="189" y="174" width="14" height="44"/><rect x="174" y="189" width="44" height="14"/>
    <rect x="309" y="174" width="14" height="44"/><rect x="294" y="189" width="44" height="14"/>
    <rect x="189" y="322" width="14" height="44"/><rect x="174" y="337" width="44" height="14"/>
    <rect x="309" y="322" width="14" height="44"/><rect x="294" y="337" width="44" height="14"/>
  </g>
</svg>
